<?xml version="1.0" encoding="iso-8859-1"?>
<!-- Generator: Adobe Illustrator 16.0.0, SVG Export Plug-In . SVG Version: 6.00 Build 0)  -->
<!DOCTYPE svg PUBLIC "-//W3C//DTD SVG 1.1//EN" "http://www.w3.org/Graphics/SVG/1.1/DTD/svg11.dtd">
<svg version="1.1" id="Layer_1" xmlns="http://www.w3.org/2000/svg" xmlns:xlink="http://www.w3.org/1999/xlink" x="0px" y="0px"
	 width="85px" height="85px" viewBox="0 0 85 85" style="enable-background:new 0 0 85 85;" xml:space="preserve">
<g>
	<linearGradient id="SVGID_1_" gradientUnits="userSpaceOnUse" x1="41.9458" y1="0.6416" x2="41.9458" y2="84.5396">
		<stop  offset="0" style="stop-color:#D72C20"/>
		<stop  offset="0.3706" style="stop-color:#C92A20"/>
		<stop  offset="1" style="stop-color:#B52720"/>
	</linearGradient>
	<path style="fill:url(#SVGID_1_);" d="M41.947,0.642C18.781,0.642,0,19.421,0,42.589c0,23.165,18.781,41.95,41.947,41.95
		c23.166,0,41.945-18.785,41.945-41.95C83.893,19.421,65.113,0.642,41.947,0.642z"/>
	<g>
		<path style="fill:#FFFFFF;" d="M31.051,44.697h-1.689v11.911h-0.008c0.569,0.669,0.914,1.533,0.914,2.478
			c0,1.177-0.532,2.23-1.369,2.934l-1.042-1.04c0.574-0.432,0.946-1.118,0.946-1.894c0-1.307-1.06-2.366-2.367-2.366
			s-2.366,1.06-2.366,2.366c0,0.769,0.365,1.451,0.933,1.884l-1.042,1.04c-0.829-0.704-1.356-1.753-1.356-2.924
			c0-0.945,0.346-1.811,0.916-2.479V38.037c0.037-0.715,0.613-1.288,1.325-1.288l34.046,0.004c0.711,0,1.287,0.573,1.326,1.289
			V56.61c0.568,0.669,0.914,1.534,0.914,2.48c0,1.17-0.527,2.219-1.357,2.924l-1.041-1.041c0.566-0.433,0.934-1.115,0.934-1.883
			c0-1.307-1.061-2.367-2.367-2.367s-2.367,1.061-2.367,2.367c0,0.773,0.373,1.461,0.945,1.893l-1.041,1.042
			c-0.836-0.705-1.369-1.759-1.369-2.935c0-0.944,0.346-1.809,0.914-2.479h-0.008v-11.91h-1.689v25.141l1.131,0.646v2.043H42.424
			v-2.043l1.133-0.646h0.002v-7.627h-3.384v7.627l1.131,0.646v2.043L29.937,72.55v-2.062l1.112-0.646L31.051,44.697z"/>
		<path style="fill:#FFFFFF;" d="M41.87,17.46c2.365,0,4.505,0.842,5.826,2.11l1.043-1.487c-1.648-1.477-4.113-2.414-6.869-2.414
			l0,0c-2.762,0-5.233,0.942-6.881,2.426l1.042,1.488C37.35,18.308,39.498,17.46,41.87,17.46"/>
		<g style="opacity:0.6;">
			<path style="fill:#FFFFFF;" d="M41.982,13.662c2.582,0,4.992,0.746,6.783,2.101c0.363,0.275,0.691,0.569,0.98,0.876l1.045-1.492
				c-2.033-1.993-5.223-3.277-8.809-3.277l0,0c-3.673,0-6.93,1.347-8.955,3.422l1.05,1.5c0.322-0.363,0.697-0.708,1.121-1.029
				C36.99,14.408,39.399,13.662,41.982,13.662"/>
		</g>
		<g style="opacity:0.3;">
			<path style="fill:#FFFFFF;" d="M41.87,10.018c4.099,0,7.724,1.494,9.878,3.765l1.037-1.479
				c-2.512-2.479-6.467-4.078-10.916-4.078l0,0c-4.456,0-8.416,1.604-10.927,4.089l1.037,1.48
				C34.131,11.518,37.762,10.018,41.87,10.018"/>
		</g>
		<g>
			<path style="fill:#FFFFFF;" d="M38.418,27.577c0,0.622-0.505,1.128-1.13,1.128c-0.621,0-1.127-0.506-1.127-1.128
				c0-0.627,0.506-1.131,1.127-1.131C37.913,26.446,38.418,26.949,38.418,27.577z"/>
			<path style="fill:#FFFFFF;" d="M50.367,21.494h-17.33c-0.71,0-1.292,0.577-1.292,1.291V34.09c0,0.708,0.582,1.29,1.292,1.29
				h17.33c0.713,0,1.291-0.581,1.291-1.29V22.785C51.658,22.071,51.08,21.494,50.367,21.494z M37.288,29.782
				c-1.217,0-2.205-0.991-2.205-2.206c0-1.22,0.988-2.208,2.205-2.208c1.218,0,2.206,0.988,2.206,2.208
				C39.494,28.792,38.506,29.782,37.288,29.782z M46.146,29.782c-1.223,0-2.211-0.991-2.211-2.206c0-1.22,0.988-2.208,2.211-2.208
				c1.217,0,2.205,0.988,2.205,2.208C48.352,28.792,47.363,29.782,46.146,29.782z"/>
			<path style="fill:#FFFFFF;" d="M47.279,27.577c0,0.622-0.514,1.128-1.133,1.128c-0.625,0-1.129-0.506-1.129-1.128
				c0-0.627,0.504-1.131,1.129-1.131C46.766,26.446,47.279,26.949,47.279,27.577z"/>
		</g>
	</g>
</g>
</svg>
