<?xml version="1.0" encoding="iso-8859-1"?>
<!-- Generator: Adobe Illustrator 16.0.0, SVG Export Plug-In . SVG Version: 6.00 Build 0)  -->
<!DOCTYPE svg PUBLIC "-//W3C//DTD SVG 1.1//EN" "http://www.w3.org/Graphics/SVG/1.1/DTD/svg11.dtd">
<svg version="1.1" id="Layer_1" xmlns="http://www.w3.org/2000/svg" xmlns:xlink="http://www.w3.org/1999/xlink" x="0px" y="0px"
	 width="43px" height="90px" viewBox="0 0 43 90" style="enable-background:new 0 0 43 90;" xml:space="preserve">
<circle style="fill:#E0E2E2;" cx="20.892" cy="19.892" r="19.892"/>
<circle style="fill:#FF9900;" cx="21.476" cy="67.331" r="20.31"/>
<g>
	<path id="rss" style="fill:#FFFFFF;" d="M15.421,70.32c-1.331,0-2.411,1.08-2.411,2.41c0,1.332,1.08,2.41,2.411,2.41
		c1.332,0,2.411-1.078,2.411-2.41C17.832,71.4,16.752,70.32,15.421,70.32z M30.978,74.512c-0.069-4.6-1.881-8.93-5.146-12.193
		c-3.264-3.264-7.592-5.1-12.189-5.168l-0.629-0.01l-0.006,0.629L13,59.58v0.609l0.616,0.01c1.807,0.035,3.568,0.393,5.228,1.068
		c1.808,0.734,3.434,1.814,4.829,3.209c1.396,1.396,2.477,3.021,3.207,4.826c0.677,1.66,1.037,3.422,1.067,5.229l0.012,0.609H31
		L30.978,74.512z"/>
	<g>
		<path style="fill:#FFFFFF;" d="M24.5,75.141h-3c0-0.018-0.045-2.613-1.748-5.168c-2.261-3.391-6.678-3.328-6.712-3.332
			l-0.086-2.998c0.246-0.02,6.096-0.131,9.294,4.666C24.475,71.648,24.5,75,24.5,75.141z"/>
	</g>
</g>
<g>
	<path id="rss_1_" style="fill:#FFFFFF;" d="M15.067,23.724c-1.298,0-2.352,1.054-2.352,2.351c0,1.3,1.053,2.352,2.352,2.352
		c1.299,0,2.352-1.052,2.352-2.352C17.419,24.777,16.366,23.724,15.067,23.724z M30.242,27.812
		c-0.067-4.486-1.834-8.709-5.019-11.893c-3.185-3.185-7.407-4.975-11.891-5.042l-0.613-0.009l-0.006,0.613l-0.008,1.765v0.595
		l0.601,0.01c1.763,0.033,3.48,0.383,5.1,1.042c1.764,0.715,3.35,1.77,4.71,3.13c1.362,1.362,2.416,2.946,3.128,4.707
		c0.66,1.62,1.012,3.338,1.041,5.1l0.012,0.596h2.968L30.242,27.812z"/>
	<g>
		<path style="fill:#FFFFFF;" d="M23.924,28.427h-2.926c0-0.018-0.044-2.549-1.706-5.042c-2.206-3.309-6.514-3.248-6.547-3.251
			l-0.083-2.925c0.239-0.018,5.946-0.127,9.066,4.553C23.899,25.02,23.924,28.29,23.924,28.427z"/>
	</g>
</g>
</svg>
