<svg  xmlns="http://www.w3.org/2000/svg" x="0px" y="0px" width="16px" height="16px" viewBox="0 0 16 16" style="enable-background:new 0 0 16 16;">
  <path d="M15,0H1C0.447,0,0,0.447,0,1v14c0,0.553,0.447,1,1,1h14c0.553,0,1-0.447,1-1V1C16,0.447,15.553,0,15,0z M14,14H2V2h12V14z" />
  <path d="M6.646,11.061c0.195,0.195,0.512,0.195,0.707,0l4.5-4.5c0.195-0.195,0.195-0.512,0-0.707l-0.707-0.707 c-0.195-0.195-0.512-0.195-0.707,0L7,8.586L5.561,7.146c-0.195-0.195-0.512-0.195-0.707,0L4.146,7.854 c-0.195,0.195-0.195,0.512,0,0.707L6.646,11.061z"/>
</svg>
